<?xml version="1.0" standalone="no"?>
<!DOCTYPE svg PUBLIC "-//W3C//DTD SVG 1.1//EN" "http://www.w3.org/Graphics/SVG/1.1/DTD/svg11.dtd" >
<!--
2013-9-30: Created.
-->
<svg>
<metadata>
Created by iconfont
</metadata>
<defs>

<font id="iconfont" horiz-adv-x="1024" >
  <font-face
    font-family="iconfont"
    font-weight="500"
    font-stretch="normal"
    units-per-em="1024"
    ascent="896"
    descent="-128"
  />
    <missing-glyph />
    
    <glyph glyph-name="platform" unicode="&#58972;" d="M640 32l-64 128 326.4 0c32 0 57.6 25.6 57.6 57.6L960 742.4c0 32-25.6 57.6-57.6 57.6L121.6 800C89.6 800 64 774.4 64 742.4l0-524.8c0-32 25.6-57.6 57.6-57.6L448 160l-64-128L0 32l0-64 1024 0 0 64L640 32zM185.6 224C153.6 224 128 249.60000000000002 128 281.6L128 678.4c0 32 25.6 57.6 57.6 57.6l652.8 0c32 0 57.6-25.6 57.6-57.6l0-396.8c0-32-25.6-57.6-57.6-57.6L185.6 224z"  horiz-adv-x="1024" />

    
    <glyph glyph-name="shezhi1" unicode="&#58900;" d="M630.690909-58.181818h-232.727273v86.109091c-16.290909 4.654545-32.581818 11.636364-51.2 20.945454L283.927273-11.636364l-165.236364 165.236364 62.836364 62.836364c-9.309091 18.618182-16.290909 34.909091-20.945455 51.2H69.818182V500.363636h88.436363c4.654545 16.290909 11.636364 32.581818 20.945455 51.2L116.363636 612.072727l165.236364 165.236364 62.836364-62.836364c18.618182 9.309091 34.909091 16.290909 51.2 20.945455V826.181818h232.727272v-88.436363c16.290909-4.654545 32.581818-11.636364 51.2-20.945455L740.072727 779.636364l165.236364-165.236364-62.836364-62.836364c9.309091-18.618182 16.290909-34.909091 20.945455-51.2H954.181818v-232.727272h-88.436363c-4.654545-16.290909-11.636364-32.581818-20.945455-51.2l67.490909-60.509091-167.563636-165.236364-62.836364 62.836364c-18.618182-9.309091-34.909091-16.290909-51.2-20.945455V-58.181818z m-186.181818 46.545454h139.636364v79.127273l18.618181 4.654546c23.272727 4.654545 46.545455 13.963636 74.472728 30.254545l16.290909 9.309091 53.527272-53.527273 97.745455 97.745455-58.181818 51.2 9.309091 16.290909c16.290909 27.927273 25.6 51.2 30.254545 74.472727l4.654546 18.618182H907.636364v139.636364h-79.127273l-4.654546 18.618181c-4.654545 23.272727-13.963636 46.545455-30.254545 74.472728l-9.309091 16.290909 53.527273 53.527272-100.072727 100.072728-51.2-55.854546-16.29091 9.309091c-27.927273 16.290909-51.2 25.6-74.472727 30.254546l-13.963636-2.327273V779.636364h-139.636364v-79.127273l-18.618182-4.654546c-23.272727-4.654545-46.545455-13.963636-74.472727-30.254545l-16.290909-9.309091L279.272727 709.818182l-100.072727-100.072727 55.854545-51.2-9.30909-16.29091c-16.290909-27.927273-25.6-51.2-30.254546-74.472727v-13.963636H116.363636v-139.636364h79.127273l4.654546-18.618182c4.654545-23.272727 13.963636-46.545455 30.254545-74.472727l9.309091-16.290909L186.181818 151.272727l100.072727-100.072727 53.527273 53.527273 16.290909-9.309091c27.927273-16.290909 51.2-25.6 74.472728-30.254546l18.618181-4.654545V-11.636364h-4.654545zM512 546.909091c90.763636 0 162.909091-72.145455 162.909091-162.909091s-72.145455-162.909091-162.909091-162.909091-162.909091 72.145455-162.909091 162.909091 72.145455 162.909091 162.909091 162.909091m0 46.545454c-116.363636 0-209.454545-93.090909-209.454545-209.454545s93.090909-209.454545 209.454545-209.454545 209.454545 93.090909 209.454545 209.454545-93.090909 209.454545-209.454545 209.454545z"  horiz-adv-x="1024" />

    
    <glyph glyph-name="inform" unicode="&#58905;" d="M512-83.78181800000004L384 81.45454500000005H23.272727V733.090909h977.454546v-651.636364H640L512-83.78181800000004zM69.818182 128h337.454545l104.727273-137.309091 104.727273 137.309091H954.181818V686.545455H69.818182v-558.545455zM221.090909 453.818182h93.090909v-93.090909h-93.090909zM453.818182 453.818182h93.090909v-93.090909h-93.090909zM686.545455 453.818182h93.090909v-93.090909h-93.090909z"  horiz-adv-x="1024" />

    
    <glyph glyph-name="main" unicode="&#58968;" d="M910.222222 355.555556v-455.111112H597.333333v199.111112h-170.666666v-199.111112H113.777778V384H0L512 867.555556l512-512h-113.777778zM142.222222 440.888889h28.444445v-483.555556h199.111111v199.111111h284.444444v-199.111111h199.111111V412.444444h28.444445L512 782.222222 142.222222 440.888889z"  horiz-adv-x="1024" />

    
    <glyph glyph-name="shezhi" unicode="&#58891;" d="M509.4 398h-384c-22 0-40 18-40 40V766.4c0 22 18 40 40 40h344c22 0 40-18 40-40V398zM160.2 452.8h294.2V731.6c0 11-9 20-20 20H160.2c-11 0-20-9-20-20v-258.8c0-11 9-20 20-20zM509.4 1.6000000000000227c0-22-18-40-40-40h-344c-22 0-40 18-40 40V330c0 22 18 40 40 40h384v-368.4zM140.2 295.20000000000005v-258.8c0-11 9-20 20-20h274.2c11 0 20 9 20 20V315.20000000000005H160.2c-11 0-20-9-20-20zM539.4 766.4c0 22 18 40 40 40h344c22 0 40-18 40-40V438c0-22-18-40-40-40h-384V766.4z m369.2-293.6V731.6c0 11-9 20-20 20H614.4c-11 0-20-9-20-20v-278.8h294.2c11 0 20 9 20 20zM539.4 370h384c22 0 40-18 40-40v-328.6c0-22-18-40-40-40h-344c-22 0-40 18-40 40V370z m349.2-54.8H594.4v-278.8c0-11 9-20 20-20h274.2c11 0 20 9 20 20V295.20000000000005c0 11-9 20-20 20z"  horiz-adv-x="1024" />

    
    <glyph glyph-name="meizhouhuigubaobiao" unicode="&#59099;" d="M832 768c38.4 0 64-25.6 64-64v-512c0-38.4-25.6-64-64-64H192c-38.4 0-64 25.6-64 64V704c0 38.4 25.6 64 64 64h640m0 64H192c-70.4 0-128-57.6-128-128v-512c0-70.4 57.6-128 128-128h640c70.4 0 128 57.6 128 128V704c0 70.4-57.6 128-128 128zM864-64h-704c-19.2 0-32 12.8-32 32s12.8 32 32 32h704c19.2 0 32-12.8 32-32s-12.8-32-32-32zM249.6 640h64v-448h-64zM480 512h64v-320h-64zM710.4 384h64v-192h-64z"  horiz-adv-x="1024" />

    
    <glyph glyph-name="xiaozuguanli" unicode="&#59101;" d="M371.2 288c-153.6 0-275.2 121.6-275.2 275.2C96 710.4 217.6 832 371.2 832s275.2-121.6 275.2-275.2c0-147.2-128-268.8-275.2-268.8z m0 480C256 768 160 672 160 556.8c0-115.2 96-211.2 211.2-211.2 115.2 0 211.2 96 211.2 211.2C582.4 672 486.4 768 371.2 768z m0 0M678.4-64c-6.4 0-19.2 6.4-19.2 6.4-6.4 6.4-6.4 12.8-6.4 19.2 0 153.6-121.6 275.2-275.2 275.2s-275.2-121.6-275.2-275.2c-6.4-12.8-19.2-25.6-38.4-25.6s-32 12.8-32 32c0 185.6 153.6 339.2 339.2 339.2s339.2-153.6 339.2-339.2c0-19.2-12.8-32-32-32z m-64 339.2c-19.2 0-32 12.8-32 32s12.8 32 32 32c115.2 0 211.2 96 211.2 211.2 0 115.2-96 211.2-211.2 211.2-12.8 0-25.6 6.4-32 12.8-6.4 12.8-6.4 19.2 0 32s19.2 12.8 25.6 12.8c153.6 0 275.2-121.6 275.2-275.2 0-147.2-121.6-268.8-268.8-268.8z m0 0M960-57.6c-6.4 0-19.2 6.4-19.2 6.4-6.4 6.4-6.4 12.8-6.4 19.2 0 179.2-128 300.8-320 300.8-19.2 0-32 12.8-32 32s12.8 32 32 32c102.4 0 198.4-32 268.8-96 32-32 64-70.4 83.2-115.2 19.2-44.8 32-96 32-147.2 0-6.4-6.4-19.2-6.4-19.2-12.8-12.8-25.6-12.8-32-12.8z m0 0"  horiz-adv-x="1024" />

    
    <glyph glyph-name="settings" unicode="&#59100;" d="M486.4 211.20000000000005c-96 0-172.8 76.8-172.8 172.8 0 96 76.8 172.8 172.8 172.8 96 0 172.8-76.8 172.8-172.8 6.4-96-76.8-172.8-172.8-172.8z m0 57.6c38.4 0 76.8 19.2 96 57.6 19.2 38.4 19.2 76.8 0 115.2-12.8 32-51.2 57.6-96 57.6-64 0-115.2-51.2-115.2-115.2s51.2-115.2 115.2-115.2z m281.6-243.2h166.4c6.4 0 12.8 0 19.2-6.4 6.4-6.4 6.4-12.8 6.4-19.2v-6.4c0-6.4 0-12.8-6.4-19.2-6.4-6.4-12.8-6.4-19.2-6.4H768c-6.4 0-12.8 0-19.2 6.4-6.4 6.4-6.4 12.8-6.4 19.2V0c0 6.4 0 12.8 6.4 19.2 6.4 0 12.8 6.4 19.2 6.4z m0 115.2h166.4c6.4 0 12.8 0 19.2-6.4 6.4-6.4 6.4-12.8 6.4-19.2v-6.4c0-6.4 0-12.8-6.4-19.2-6.4-6.4-12.8-6.4-19.2-6.4H768c-6.4 0-12.8 0-19.2 6.4-6.4 6.4-6.4 12.8-6.4 19.2v6.4c0 6.4 0 12.8 6.4 19.2 6.4 6.4 12.8 6.4 19.2 6.4z m0 115.2h166.4c6.4 0 12.8 0 19.2-6.4 6.4-6.4 6.4-12.8 6.4-19.2v-6.4c0-6.4 0-12.8-6.4-19.2-6.4-6.4-12.8-6.4-19.2-6.4H768c-6.4 0-12.8 0-19.2 6.4-6.4 6.4-6.4 12.8-6.4 19.2v6.4c0 6.4 0 12.8 6.4 19.2 6.4 6.4 12.8 6.4 19.2 6.4z m0 0M659.2 153.60000000000002v-70.4c-12.8-6.4-32-19.2-51.2-25.6v-51.2c0-19.2-6.4-38.4-19.2-51.2-6.4-12.8-25.6-19.2-44.8-19.2H435.2c-19.2 0-38.4 6.4-51.2 19.2-12.8 12.8-19.2 32-19.2 51.2v51.2c-32 12.8-64 32-96 57.6l-44.8-25.6c-32-19.2-76.8-12.8-96 25.6l-57.6 96c-12.8 32-6.4 70.4 25.6 89.6l44.8 25.6c-6.4 38.4-6.4 76.8 0 108.8l-44.8 32c-32 19.2-38.4 57.6-19.2 96L128 652.8c19.2 32 64 44.8 96 25.6l44.8-25.6c25.6 25.6 64 44.8 96 57.6v51.2c0 19.2 6.4 38.4 19.2 51.2 12.8 12.8 32 19.2 51.2 19.2h108.8c38.4 0 70.4-32 70.4-70.4v-51.2c32-12.8 64-32 96-57.6l44.8 25.6c32 19.2 76.8 6.4 96-25.6l57.6-96c19.2-32 6.4-76.8-25.6-96l-51.2-19.2c6.4-32 6.4-70.4 0-102.4h-57.6c6.4 44.8 6.4 89.6-6.4 134.4l51.2 32 12.8 6.4c19.2 12.8 19.2 32 12.8 44.8l-32 51.2c-12.8 19.2-32 19.2-44.8 12.8l-12.8-6.4-51.2-32c-38.4 44.8-89.6 70.4-147.2 83.2V736c0 6.4-6.4 19.2-12.8 25.6-6.4 6.4-19.2 12.8-25.6 12.8h-57.6c-19.2 0-32-12.8-32-32v-70.4c-64-19.2-108.8-51.2-153.6-89.6l-51.2 32h-6.4c-19.2 12.8-38.4 6.4-51.2-12.8l-25.6-51.2c-12.8-12.8-6.4-38.4 12.8-44.8l6.4-6.4 51.2-32c-6.4-25.6-12.8-57.6-12.8-83.2s6.4-57.6 12.8-83.2l-51.2-32-6.4-6.4c-19.2-6.4-25.6-32-12.8-44.8l32-51.2c12.8-19.2 32-19.2 44.8-12.8l6.4 6.4 51.2 32c38.4-44.8 89.6-70.4 147.2-83.2v-70.4c0-6.4 6.4-19.2 12.8-25.6 6.4-12.8 12.8-19.2 25.6-19.2h57.6c6.4 0 19.2 6.4 25.6 12.8 6.4 6.4 12.8 12.8 12.8 25.6v70.4c38.4 6.4 70.4 25.6 102.4 51.2z m0 0"  horiz-adv-x="1024" />

    
    <glyph glyph-name="renwuguanli" unicode="&#59102;" d="M761.6 44.8h-448c-19.2 0-32 12.8-32 32s12.8 32 32 32h448c19.2 0 32-12.8 32-32s-12.8-32-32-32zM832 723.2c38.4 0 64-25.6 64-64v-640c0-38.4-25.6-64-64-64H192c-38.4 0-64 25.6-64 64v640c0 38.4 25.6 64 64 64h640m0 64H192c-70.4 0-128-57.6-128-128v-640c0-70.4 57.6-128 128-128h640c70.4 0 128 57.6 128 128v640c0 70.4-57.6 128-128 128zM755.2 524.8l-256-300.8c-12.8-12.8-32-12.8-44.8-6.4-12.8 12.8-12.8 38.4-6.4 51.2l256 300.8c12.8 12.8 32 12.8 44.8 6.4 19.2-19.2 19.2-38.4 6.4-51.2zM320 396.8l128-172.8c12.8-12.8 32-12.8 44.8-6.4 19.2 12.8 19.2 38.4 6.4 51.2l-128 172.8c-12.8 12.8-32 12.8-44.8 0-12.8-12.8-19.2-32-6.4-44.8zM313.6 684.8c-19.2 0-32 12.8-32 32v128c0 19.2 12.8 32 32 32s32-12.8 32-32v-128c0-19.2-12.8-32-32-32zM697.6 684.8c-19.2 0-32 12.8-32 32v128c0 19.2 12.8 32 32 32s32-12.8 32-32v-128c0-19.2-12.8-32-32-32z"  horiz-adv-x="1024" />

    
    <glyph glyph-name="zhanwaicepingguanggaoshuju" unicode="&#59103;" d="M710.4 576h-320c-12.8 0-32 12.8-32 32s19.2 32 32 32h320c19.2 0 32-12.8 32-32s-12.8-32-32-32zM262.4 608m-32 0a32 32 0 1 1 64 0 32 32 0 1 1-64 0ZM710.4 384h-320c-12.8 0-32 12.8-32 32s19.2 32 32 32h320c19.2 0 32-12.8 32-32s-12.8-32-32-32zM262.4 416m-32 0a32 32 0 1 1 64 0 32 32 0 1 1-64 0ZM742.4-57.6L576 32c-12.8 6.4-19.2 25.6-12.8 44.8 6.4 12.8 25.6 19.2 44.8 12.8l166.4-96c12.8-6.4 19.2-25.6 12.8-44.8-12.8-12.8-32-19.2-44.8-6.4zM729.6-19.2l172.8 307.2c6.4 12.8 25.6 19.2 44.8 12.8 12.8-6.4 19.2-25.6 12.8-44.8l-172.8-307.2c-6.4-12.8-25.6-19.2-44.8-12.8-19.2 12.8-25.6 32-12.8 44.8zM582.4 192h-192c-19.2 0-32 12.8-32 32s12.8 32 32 32h192c19.2 0 32-12.8 32-32s-12.8-32-32-32zM262.4 224m-32 0a32 32 0 1 1 64 0 32 32 0 1 1-64 0ZM448 0H192c-38.4 0-64 25.6-64 64V704c0 38.4 25.6 64 64 64h640c38.4 0 64-25.6 64-64v-256h64V704c0 70.4-57.6 128-128 128H192c-70.4 0-128-57.6-128-128v-640c0-70.4 57.6-128 128-128h256v64z"  horiz-adv-x="1024" />

    
    <glyph glyph-name="biangengguanli" unicode="&#58960;" d="M860 832H164A100 100 0 0 1 64 732v-696a100 100 0 0 1 100-100h696a100 100 0 0 1 100 100V732A100 100 0 0 1 860 832z m28-774a50 50 0 0 0-50-50H186a50 50 0 0 0-50 50V710a50 50 0 0 0 50 50h652a50 50 0 0 0 50-50zM780 544H352v16a36.11 36.11 0 0 1-36 36 36.11 36.11 0 0 1-36-36v-16h-36a36 36 0 0 1-36-36 36 36 0 0 1 36-36h36v-16a36.11 36.11 0 0 1 36-36 36.11 36.11 0 0 1 36 36v16h428a36 36 0 0 1 36 36 36 36 0 0 1-36 36zM780 296h-36v16a36.11 36.11 0 0 1-36 36 36.11 36.11 0 0 1-36-36v-16H244a36 36 0 0 1-36-36 36 36 0 0 1 36-36h428v-16a36.11 36.11 0 0 1 36-36 36.11 36.11 0 0 1 36 36v16h36a36 36 0 0 1 36 36 36 36 0 0 1-36 36z"  horiz-adv-x="1024" />

    
    <glyph glyph-name="xiangmuguanli" unicode="&#58963;" d="M724.39 688H155.61A91.62 91.62 0 0 1 64 596.39v-568.78A91.62 91.62 0 0 1 155.61-64h568.78A91.62 91.62 0 0 1 816 27.61V596.39A91.62 91.62 0 0 1 724.39 688zM186 616h508a50 50 0 0 0 50-50v-94H136v94a50 50 0 0 0 50 50z m508-608H186a50 50 0 0 0-50 50V400h608v-342a50 50 0 0 0-50-50zM868.39 832H244a36 36 0 0 1-36-36 36 36 0 0 1 36-36h594a50 50 0 0 0 50-50v-594a36 36 0 0 1 36-36 36 36 0 0 1 36 36V740.39A91.62 91.62 0 0 1 868.39 832zM352 240m36 0l248 0q36 0 36-36l0 0q0-36-36-36l-248 0q-36 0-36 36l0 0q0 36 36 36ZM244 204m-36 0a36 36 0 1 1 72 0 36 36 0 1 1-72 0Z"  horiz-adv-x="1024" />

    
    <glyph glyph-name="hetongguanli" unicode="&#58964;" d="M860 832H164A100 100 0 0 1 64 732v-696a100 100 0 0 1 100-100h306a36 36 0 0 1 36 36 36 36 0 0 1-36 36H186a50 50 0 0 0-50 50V710a50 50 0 0 0 50 50h652a50 50 0 0 0 50-50v-274a36 36 0 0 1 72 0V732A100 100 0 0 1 860 832zM815.03 205.92L750.2 337.29l-64.84-131.37-144.97-21.07 104.9-102.25-24.76-144.39 129.67 68.17 129.66-68.17L855.1 82.6 960 184.85l-144.97 21.07zM202 625.29m36 0l536 0q36 0 36-36l0 0q0-36-36-36l-536 0q-36 0-36 36l0 0q0 36 36 36ZM202 481.29m36 0l536 0q36 0 36-36l0 0q0-36-36-36l-536 0q-36 0-36 36l0 0q0 36 36 36ZM237.88 337.29A35.88 35.88 0 0 1 202 301.4v-0.23a35.87 35.87 0 0 1 35.88-35.88h230A36.12 36.12 0 0 1 504 301.4a35.88 35.88 0 0 1-35.88 35.89z"  horiz-adv-x="1024" />

    
    <glyph glyph-name="PresentOutline" unicode="&#59003;" d="M853.3 896H170.6C76.4 896 0 819.6 0 725.3v-682.7C0-51.6 76.4-128 170.7-128h682.7c94.3 0 170.7 76.4 170.7 170.7V725.3C1024 819.6 947.6 896 853.3 896z m-384-85.3v-280.4L447 542.9c-19.2 10.8-40.9 16.6-63 16.6-22 0-43.8-5.7-63-16.6l-22.4-12.6V810.7h170.7z m469.4-768c0-47.1-38.3-85.3-85.3-85.3H170.7c-47.1 0-85.3 38.3-85.3 85.3V725.3c0 47.1 38.3 85.3 85.3 85.3h42.7v-353.5c0-24.9 20.4-42.7 42.7-42.7 7 0 14.2 1.8 20.9 5.6l86 48.6c6.5 3.7 13.8 5.5 21 5.5 7.2 0 14.5-1.8 21-5.5l86-48.6c6.8-3.8 14-5.6 20.9-5.6 22.3 0 42.7 17.8 42.7 42.7V810.7h298.7c47.1 0 85.3-38.3 85.3-85.3v-682.7z"  horiz-adv-x="1024" />

    
    <glyph glyph-name="UmbrellaOutline" unicode="&#59030;" d="M1024 287.7c0 269.2-207.9 489.5-471.9 510 1.3 4 2.5 8.1 2.5 12.6V853c0 23.6-19.1 42.7-42.7 42.7S469.3 876.6 469.3 853v-42.7c0-4.5 1.3-8.6 2.5-12.6C207.9 777.2 0 557 0 287.7h471.6c-1-3.7-2.3-7.3-2.3-11.3V7c0-27.2-22.2-49.4-49.4-49.4-23.6 0-42.7-19.1-42.7-42.7s19.1-42.7 42.7-42.7c74.3 0 134.8 60.5 134.8 134.8V276.5c0 4-1.2 7.6-2.3 11.3H1024zM512 714.4c206 0 378.4-146.8 418.1-341.3H93.9C133.6 567.6 306 714.4 512 714.4z"  horiz-adv-x="1024" />

    
    <glyph glyph-name="SackOutline" unicode="&#59034;" d="M980.6157 466.9l0.8 0.2L958.0157 694.7C949.1157 781.8 875.7157 848 788.2157 848H235.8157C148.3157 848 75.0157 781.8 66.0157 694.7L42.7157 467.1l0.5-0.1L0.5157 58.5c-3.2-34.9 8.6-69.9 32.4-96 24.6-27 59.8-42.4 96.7-42.4h764.8c36.9 0 72.1 15.5 96.7 42.4 23.8 26.1 35.6 61.1 32.3 96.5l-42.8 407.9zM150.9157 686c4.5 43.7 41 76.6 84.9 76.6h552.4c43.9 0 80.4-32.9 84.9-76.6l16.1-156.6-376.4-108.2-377.9 108.3 16 156.5z m777.2-666c-8.4-9.3-20.7-14.6-33.6-14.6H129.6157c-12.9 0-25.2 5.3-33.6 14.6-7.8 8.6-11.5 19.4-10.5 30.2l41 393 362.8-103.9c7.6-2.2 15.5-3.3 23.3-3.3 7.9 0 15.8 1.1 23.4 3.3L897.3157 443l41.2-392.3c1.1-11.3-2.6-22.2-10.4-30.7zM642.1157 601.6c0 23.6-19.1 42.7-42.7 42.7H428.8157c-23.6 0-42.7-19.1-42.7-42.7s19.1-42.7 42.7-42.7h170.7c23.5 0 42.6 19.1 42.6 42.7z"  horiz-adv-x="1024" />

    
    <glyph glyph-name="LiaisonOutline" unicode="&#59047;" d="M42.7 305.9c23.6 0 42.7 19.1 42.7 42.7V571c0 14.9 8 28.9 20.7 36.6l189.5 113.6c20.2 12.1 26.8 38.3 14.7 58.5-12.1 20.2-38.2 26.8-58.5 14.7L62.2 680.8C23.8 657.8 0 615.7 0 571v-222.4c0-23.6 19.1-42.7 42.7-42.7zM756.2 704.5l161.7-96.9c12.8-7.7 20.7-21.7 20.7-36.6v-222.4c0-23.6 19.1-42.7 42.7-42.7s42.7 19.1 42.7 42.7V571c0 44.7-23.8 86.8-62.2 109.8L800 777.7c-20.2 12.1-46.4 5.5-58.5-14.7-12.1-20.2-5.5-46.4 14.7-58.5zM715.7 76.2L533.9-32.7c-13.5-8.1-30.3-8.1-43.8 0L302.7 79.5c-20.2 12.1-46.5 5.5-58.5-14.7-12.1-20.2-5.5-46.4 14.7-58.5l187.3-112.2c20.3-12.2 43.1-18.2 65.8-18.2 22.7 0 45.5 6.1 65.7 18.2L759.5 3c20.2 12.1 26.8 38.3 14.7 58.5-12.1 20.2-38.2 26.8-58.5 14.7zM128 283C57.4 283 0 225.6 0 155s57.4-128 128-128 128 57.4 128 128-57.4 128-128 128z m0-170.7c-23.6 0-42.7 19.1-42.7 42.7s19.1 42.7 42.7 42.7 42.7-19.1 42.7-42.7-19.1-42.7-42.7-42.7zM896 283c-70.6 0-128-57.4-128-128s57.4-128 128-128 128 57.4 128 128-57.4 128-128 128z m0-170.7c-23.6 0-42.7 19.1-42.7 42.7s19.1 42.7 42.7 42.7 42.7-19.1 42.7-42.7-19.1-42.7-42.7-42.7zM512 636.2c70.6 0 128 57.4 128 128s-57.4 128-128 128-128-57.4-128-128 57.4-128 128-128z m0 170.6c23.6 0 42.7-19.1 42.7-42.7s-19.1-42.7-42.7-42.7-42.7 19.1-42.7 42.7 19.1 42.7 42.7 42.7z"  horiz-adv-x="1024" />

    
    <glyph glyph-name="ArcheryOutline" unicode="&#59049;" d="M949.7 416.4c-22.8 0-41.3-18.5-41.3-41.3 0-224.2-185.3-406.6-412.9-406.6S82.6 150.9 82.6 375.1s185.3 406.6 412.9 406.6c22.8 0 41.3 18.5 41.3 41.3s-18.5 41.3-41.3 41.3C222.3 864.3 0 644.8 0 375.1S222.3-114 495.5-114 991 105.4 991 375.1c0 22.8-18.5 41.3-41.3 41.3zM458.2 396c-16.7-15.5-17.7-41.7-2.1-58.3 8.1-8.8 19.2-13.2 30.2-13.2 10.1 0 20.2 3.6 28.1 11l188.9 175.6 120.1-23.4L1024 683.6 852.9 717 819.2 882 620.1 687.7l24.3-118.6L458.2 396z m310.4 321.3l14.5-70.8 70.6-13.8-57-55.7-72.5 14.2-14.2 68.9 58.6 57.2zM370.8 528.7c-41.5-32.7-67.4-79.3-73-131.4-5.6-52 9.8-103.2 43.3-143.9 33.3-40.5 80.7-65.9 133.3-71.6 7.4-0.8 14.8-1.2 22.1-1.2 44.8 0 88 14.8 123.4 42.7 41.5 32.7 67.4 79.3 73 131.4 2.5 22.7-14 43-36.6 45.5-23.7 2.6-43.1-14-45.5-36.6-3.2-29.8-18.1-56.5-42-75.3-24.1-19-54.4-27.6-85.5-24.3-31 3.3-58.8 18.3-78.4 42-19.3 23.5-28.2 52.8-25 82.6 3.2 29.8 18.1 56.5 42 75.3 24.1 19 54.5 27.5 85.5 24.3 22.1-2.4 43 13.9 45.5 36.6 2.5 22.7-14 43-36.6 45.5-52.7 5.7-104.3-9.2-145.5-41.6z"  horiz-adv-x="1024" />

    
    <glyph glyph-name="CourtOutline" unicode="&#59056;" d="M877.7 749.7H146.3C65.5 749.7 0 684.2 0 603.4v-438.6C0 84 65.5 18.5 146.3 18.5h731.4c80.8 0 146.3 65.5 146.3 146.3V603.4c0 80.8-65.5 146.3-146.3 146.3z m73.2-443h-73.2V453h73.2v-146.3zM512 310.9c-40.3 0-73.1 32.8-73.1 73.1s32.8 73.1 73.1 73.1 73.1-32.8 73.1-73.1-32.8-73.1-73.1-73.1zM73.2 453h73.1v-146.3H73.2V453z m0-288.4v69h146.3V526.1H73.2v77.3c0 40.3 32.8 73.1 73.1 73.1h329.1V525c-63-16.3-109.7-73-109.7-141.1s46.7-124.8 109.7-141.1v-151.5H146.3c-40.3 0.1-73.1 32.9-73.1 73.3z m804.5-73.2H548.6V242.9c63 16.3 109.7 73 109.7 141.1s-46.7 124.8-109.7 141.1V676.6h329.1c40.3 0 73.1-32.8 73.1-73.1v-77.3H804.6v-292.6h146.3v-69c0-40.4-32.9-73.2-73.2-73.2z"  horiz-adv-x="1024" />

    
    <glyph glyph-name="beizhu" unicode="&#58885;" d="M863.418182 598.109091l-132.654546 132.654545 109.381819 109.381819 132.654545-132.654546-109.381818-109.381818z m-65.163637 132.654545l65.163637-65.163636 41.890909 41.890909-65.163636 65.163636-41.89091-41.890909zM523.636364 390.981818l39.563636 172.218182 202.472727 202.472727 130.327273-132.654545-202.472727-202.472727-169.890909-39.563637z m158.254545 60.509091zM605.090909 537.6l-20.945454-83.781818 86.10909 20.945454 160.581819 158.254546-65.163637 67.490909-160.581818-162.909091zM930.909091-34.909091H93.090909V802.909091h581.818182v-46.545455H139.636364v-744.727272h744.727272V546.909091h46.545455zM186.181818 616.727273h302.545455v-46.545455H186.181818zM186.181818 477.090909h302.545455v-46.545454H186.181818zM186.181818 337.454545h651.636364v-46.545454H186.181818zM186.181818 197.818182h651.636364v-46.545455H186.181818z"  horiz-adv-x="1024" />

    
    <glyph glyph-name="jinjilianxiren" unicode="&#58897;" d="M800.581818-41.890909l-39.563636 20.945454 86.109091 172.218182h-186.181818l121.018181 239.709091 39.563637-20.945454-86.109091-172.218182h186.181818zM500.363636 407.272727c-102.4 0-186.181818 83.781818-186.181818 186.181818v46.545455c0 102.4 83.781818 186.181818 186.181818 186.181818s186.181818-83.781818 186.181819-186.181818v-46.545455c0-102.4-83.781818-186.181818-186.181819-186.181818z m0 372.363637c-76.8 0-139.636364-62.836364-139.636363-139.636364v-46.545455c0-76.8 62.836364-139.636364 139.636363-139.636363s139.636364 62.836364 139.636364 139.636363v46.545455c0 76.8-62.836364 139.636364-139.636364 139.636364zM651.636364-39.563636H249.018182c-51.2 0-100.072727 23.272727-128 62.836363-25.6 34.909091-34.909091 79.127273-20.945455 121.018182L139.636364 293.236364C158.254545 360.727273 223.418182 407.272727 297.890909 407.272727h404.945455v-46.545454H297.890909c-53.527273 0-102.4-34.909091-114.036364-81.454546l-39.563636-148.945454c-9.309091-27.927273-2.327273-58.181818 13.963636-81.454546 20.945455-27.927273 53.527273-44.218182 90.763637-44.218182H651.636364v-44.218181zM532.945455 188.509091h-39.563637l-109.381818 183.854545 20.945455 34.909091h218.763636l20.945454-34.909091-111.70909-183.854545zM444.509091 360.727273l67.490909-114.036364 67.490909 114.036364h-134.981818zM201.914182-10.24l34.094545 183.063273 45.754182-8.541091-34.071273-183.016727z"  horiz-adv-x="1024" />

    
    <glyph glyph-name="shijian" unicode="&#58899;" d="M512-81.454545C256-81.454545 46.545455 128 46.545455 384S256 849.454545 512 849.454545s465.454545-209.454545 465.454545-465.454545-209.454545-465.454545-465.454545-465.454545z m0 884.363636C281.6 802.909091 93.090909 614.4 93.090909 384s188.509091-418.909091 418.909091-418.909091 418.909091 188.509091 418.909091 418.909091S742.4 802.909091 512 802.909091zM721.454545 337.454545H465.454545V593.454545h46.545455v-209.454545h209.454545z"  horiz-adv-x="1024" />

    
    <glyph glyph-name="shimingrenzheng" unicode="&#58900;" d="M1024 34.909091H0V733.090909h1024v-698.181818zM46.545455 81.454545h930.90909V686.545455H46.545455v-605.09091zM523.636364 151.272727h-46.545455v69.818182c0 51.2-41.890909 93.090909-93.090909 93.090909h-139.636364c-51.2 0-93.090909-41.890909-93.090909-93.090909v-69.818182h-46.545454v69.818182c0 79.127273 60.509091 139.636364 139.636363 139.636364h139.636364c79.127273 0 139.636364-60.509091 139.636364-139.636364v-69.818182zM325.818182 337.454545c-76.8 0-139.636364 62.836364-139.636364 139.636364s62.836364 139.636364 139.636364 139.636364 139.636364-62.836364 139.636363-139.636364-62.836364-139.636364-139.636363-139.636364z m0 232.727273c-51.2 0-93.090909-41.890909-93.090909-93.090909s41.890909-93.090909 93.090909-93.090909 93.090909 41.890909 93.090909 93.090909-41.890909 93.090909-93.090909 93.090909zM546.909091 537.6h302.545454v-46.545455h-302.545454zM546.909091 407.272727h116.363636v-46.545454h-116.363636zM823.854545 162.909091h-41.890909l-81.454545 134.981818 39.563636 25.6 62.836364-104.727273 62.836364 104.727273 39.563636-25.6z"  horiz-adv-x="1024" />

    
    <glyph glyph-name="tixing" unicode="&#58901;" d="M921.6 58.181818H102.4L209.454545 272.290909V500.363636C209.454545 667.927273 344.436364 802.909091 512 802.909091s302.545455-134.981818 302.545455-302.545455v-228.072727l107.054545-214.109091z m-744.727273 46.545455h670.254546L768 262.981818V500.363636c0 141.963636-114.036364 256-256 256s-256-114.036364-256-256v-237.381818L176.872727 104.727273zM593.454545 756.363636h-46.545454V779.636364c0 25.6-20.945455 46.545455-46.545455 46.545454s-46.545455-20.945455-46.545454-46.545454v-23.272728h-46.545455V779.636364c0 51.2 41.890909 93.090909 93.090909 93.090909s93.090909-41.890909 93.090909-93.090909v-23.272728zM500.363636-81.454545c-65.163636 0-116.363636 51.2-116.363636 116.363636v23.272727h46.545455v-23.272727c0-39.563636 30.254545-69.818182 69.818181-69.818182s69.818182 30.254545 69.818182 69.818182v23.272727h46.545455v-23.272727c0-65.163636-51.2-116.363636-116.363637-116.363636z"  horiz-adv-x="1024" />

    
    <glyph glyph-name="yue" unicode="&#58903;" d="M512-81.454545C256-81.454545 46.545455 128 46.545455 384S256 849.454545 512 849.454545s465.454545-209.454545 465.454545-465.454545-209.454545-465.454545-465.454545-465.454545z m0 884.363636C281.6 802.909091 93.090909 614.4 93.090909 384s188.509091-418.909091 418.909091-418.909091 418.909091 188.509091 418.909091 418.909091S742.4 802.909091 512 802.909091zM512 407.272727l-214.109091 214.109091 32.581818 32.581818 181.527273-181.527272 181.527273 181.527272 32.581818-32.581818zM279.272727 453.818182h465.454546v-46.545455H279.272727zM488.727273 453.818182h46.545454v-418.909091h-46.545454zM279.272727 267.636364h465.454546v-46.545455H279.272727z"  horiz-adv-x="1024" />

    
    <glyph glyph-name="yuyuedingdan" unicode="&#58904;" d="M546.909091-81.454545H139.636364V802.909091h744.727272v-418.909091h-46.545454V756.363636H186.181818v-791.272727h360.727273zM349.090909 849.454545h325.818182v-139.636363H349.090909zM698.181818 686.545455H325.818182V872.727273h372.363636v-186.181818zM372.363636 733.090909h279.272728V826.181818H372.363636v-93.090909zM279.272727 430.545455h465.454546v-46.545455H279.272727zM279.272727 290.909091h218.763637v-46.545455H279.272727zM279.272727 570.181818h465.454546v-46.545454H279.272727zM768 128m-186.181818 0a186.181818 186.181818 0 1 1 372.363636 0 186.181818 186.181818 0 1 1-372.363636 0ZM768-81.454545c-116.363636 0-209.454545 93.090909-209.454545 209.454545s93.090909 209.454545 209.454545 209.454545 209.454545-93.090909 209.454545-209.454545-93.090909-209.454545-209.454545-209.454545z m0 372.363636c-90.763636 0-162.909091-72.145455-162.909091-162.909091s72.145455-162.909091 162.909091-162.909091 162.909091 72.145455 162.909091 162.909091-72.145455 162.909091-162.909091 162.909091zM744.727273 221.090909v-116.363636h116.363636M884.363636 81.454545h-162.909091v162.909091h46.545455v-116.363636h116.363636z"  horiz-adv-x="1024" />

    
    <glyph glyph-name="order" unicode="&#58927;" d="M856.006891 846.122009L793.57805 846.122009c-17.263176 0-37.193087-10.472516-37.193087-27.492144s19.929912-34.038234 37.193087-34.038234l62.428841 0c37.190017 0 62.425771-24.877597 62.425771-61.530378l0-708.23636c0-36.652781-25.235754-61.530378-62.425771-61.530378L183.931103-46.70548599999995c-37.185924 0-78.360695 24.877597-78.360695 61.530378L105.570407 723.062276c0 36.652781 25.232684 61.530378 62.425771 61.530378l78.363765 0c17.270339 0 23.907503 17.019629 23.907503 34.038234s-6.638187 27.492144-23.907503 27.492144l-78.363765 0c-87.661525 0-124.853589-53.674457-124.853589-124.365472l0-700.384531c0-75.928297 46.486754-129.603777 131.494846-129.603777l674.722058 0c85.011162 0 131.497916 44.51382 131.497916 129.603777L980.857411 721.756537C980.857411 792.447553 937.03023 846.122009 856.006891 846.122009L856.006891 846.122009 856.006891 846.122009zM246.359944 568.587042c0-17.022699 14.609743-31.420617 31.873941-31.420617l468.857411 0c17.266245 0 31.880081 14.398942 31.880081 31.420617 0 17.019629-14.613836 31.420617-31.880081 31.420617L278.233885 600.007659C260.969687 600.008682 246.359944 585.606671 246.359944 568.587042L246.359944 568.587042 246.359944 568.587042zM745.766115 429.819558L278.233885 429.819558c-17.263176 0-31.873941-14.402011-31.873941-31.42471 0-17.015535 14.609743-31.414477 31.873941-31.414477l468.857411 0c17.266245 0 31.880081 14.398942 31.880081 31.414477C777.646196 416.726356 763.02929 429.819558 745.766115 429.819558L745.766115 429.819558 745.766115 429.819558zM745.766115 245.23251600000003L278.233885 245.23251600000003c-17.263176 0-31.873941-14.402011-31.873941-31.417547 0-17.019629 14.609743-31.417547 31.873941-31.417547l468.857411 0c17.266245 0 31.880081 14.398942 31.880081 31.417547C777.646196 232.139314 763.02929 245.23251600000003 745.766115 245.23251600000003L745.766115 245.23251600000003 745.766115 245.23251600000003zM404.415726 768.881834l217.828121 0c25.235754 0 46.486754 24.871457 46.486754 53.674457 0 28.79686-21.251 53.674457-47.818075 53.674457L404.415726 876.230748c-26.564006 0-47.811936-24.874527-47.811936-53.674457C356.603791 793.753291 377.851721 768.881834 404.415726 768.881834L404.415726 768.881834 404.415726 768.881834zM404.415726 768.881834"  horiz-adv-x="1024" />

    
    <glyph glyph-name="lianxiren" unicode="&#59031;" d="M405.333333 757.333333c147.285333 0 266.666667-119.381333 266.666667-266.666666 0-97.834667-52.693333-183.36-131.2-229.76 105.664-44.053333 186.133333-138.346667 209.621333-255.210667a32 32 0 1 0-62.72-12.586667c-26.389333 131.157333-140.672 227.626667-275.498666 230.826667l-6.314667 0.085333L405.333333 224h-0.853333c-137.386667-0.384-254.698667-97.749333-281.472-230.826667a32 32 0 0 0-62.741333 12.608c23.488 116.821333 103.978667 211.072 209.621333 255.146667A266.453333 266.453333 0 0 0 138.666667 490.666667c0 147.285333 119.381333 266.666667 266.666666 266.666666z m256 42.666667c135.488 0 245.333333-109.845333 245.333334-245.333333 0-79.786667-38.442667-152.128-99.456-197.312l-2.389334-1.706667C904.725333 304.106667 970.666667 202.24 970.666667 85.333333a32 32 0 0 0-64 0c0 113.045333-78.08 208.298667-188.757334 234.730667a32 32 0 0 0-0.704 62.08l-1.237333-0.426667A181.418667 181.418667 0 0 1 842.666667 554.666667a181.333333 181.333333 0 0 1-216.853334 177.856 32 32 0 0 0-12.437333 62.784c15.68 3.114667 31.722667 4.693333 47.957333 4.693333z m-256-106.666667a202.666667 202.666667 0 0 1 0-405.333333l-0.810666 0.021333 0.810666-0.021333h0.810667A202.666667 202.666667 0 0 1 405.333333 693.333333z"  horiz-adv-x="1024" />

    
    <glyph glyph-name="personal" unicode="&#58971;" d="M891.6 160.5c-20.8 49.1-50.5 93.1-88.3 130.9s-81.9 67.5-130.9 88.3c-10.1 4.3-20.3 8.1-30.6 11.5 13.4 8.8 26 19 37.5 30.6 44.7 44.7 69.3 104.1 69.3 167.3S724 711.9 679.3 756.5 575.2 825.9 512 825.9c-63.2 0-122.6-24.6-167.3-69.3-44.7-44.7-69.3-104.1-69.3-167.3S300 466.7 344.7 422c11.6-11.6 24.2-21.8 37.5-30.6-10.3-3.4-20.5-7.3-30.6-11.5-49.1-20.8-93.1-50.5-130.9-88.3-37.8-37.8-67.5-81.9-88.3-130.9-21.5-51-32.4-104.9-32.4-160.6 0-19.3 15.7-35 35-35h754c19.3 0 35 15.7 35 35 0 55.7-10.9 109.6-32.4 160.4zM512 755.9c91.9 0 166.6-74.8 166.6-166.6 0-91.9-74.8-166.6-166.6-166.6s-166.6 74.8-166.6 166.6S420.1 755.9 512 755.9zM171.8 35.10000000000002c7.9 78.1 42.1 150.6 98.4 206.8 64.6 64.6 150.5 100.2 241.8 100.2S689.2 306.6 753.8 242c56.3-56.3 90.5-128.7 98.4-206.8H171.8z"  horiz-adv-x="1024" />

    
    <glyph glyph-name="message" unicode="&#58892;" d="M377.6-51.200000000000045l-48 48h361.6l-48-48c-70.4-73.6-192-73.6-265.6 0zM832 403.2v115.2c0 166.4-128 304-288 320v3.2c0 19.2-12.8 32-32 32s-32-12.8-32-32v-3.2c-163.2-16-288-153.6-288-320v-115.2c0-131.2-44.8-262.4-128-364.8h896c-83.2 102.4-128 233.6-128 364.8z m-576 0v115.2c0 134.4 99.2 243.2 230.4 256l28.8 3.2 22.4-3.2c131.2-12.8 230.4-121.6 230.4-256v-115.2c0-105.6 25.6-208 73.6-300.8H182.4C230.4 195.20000000000005 256 297.6 256 403.2z"  horiz-adv-x="1024" />

    
    <glyph glyph-name="gengduo" unicode="&#58970;" d="M358.4 416L121.6 416C57.6 416 0 473.6 0 537.6L0 774.4C0 838.4 57.6 896 121.6 896l230.4 0c70.4 0 121.6-57.6 121.6-121.6l0-230.4C480 473.6 422.4 416 358.4 416zM121.6 832C89.6 832 64 806.4 64 774.4l0-230.4c0-32 25.6-57.6 57.6-57.6l230.4 0c32 0 57.6 25.6 57.6 57.6L409.6 774.4C416 806.4 390.4 832 358.4 832L121.6 832zM358.4-128L121.6-128C57.6-128 0-70.39999999999998 0-6.399999999999977l0 230.4c0 70.4 57.6 121.6 121.6 121.6l230.4 0c70.4 0 121.6-57.6 121.6-121.6l0-230.4C480-70.39999999999998 422.4-128 358.4-128zM121.6 288C89.6 288 64 262.4 64 230.39999999999998l0-230.4C64-38.39999999999998 89.6-64 121.6-64l230.4 0c32 0 57.6 25.6 57.6 57.6l0 230.4c0 32-25.6 57.6-57.6 57.6L121.6 281.6zM780.8-128c-134.4 0-243.2 108.8-243.2 243.2s108.8 243.2 243.2 243.2 243.2-108.8 243.2-243.2S915.2-128 780.8-128zM780.8 288c-96 0-179.2-76.8-179.2-179.2s76.8-179.2 179.2-179.2 179.2 76.8 179.2 179.2S883.2 288 780.8 288zM902.4 416l-230.4 0c-70.4 0-121.6 57.6-121.6 121.6L550.4 774.4C544 838.4 601.6 896 665.6 896l230.4 0C966.4 896 1024 838.4 1024 774.4l0-230.4C1024 473.6 966.4 416 902.4 416zM665.6 832C633.6 832 608 806.4 608 774.4l0-230.4c0-32 25.6-57.6 57.6-57.6l230.4 0c32 0 57.6 25.6 57.6 57.6L953.6 774.4C960 806.4 934.4 832 902.4 832L665.6 832z"  horiz-adv-x="1024" />

    
    <glyph glyph-name="project" unicode="&#58926;" d="M896 0A128 128 0 0 0 768-128H128A128 128 0 0 0 0 0V640a128 128 0 0 0 128 128A128 128 0 0 0 256 896h640A128 128 0 0 0 1024 768V128a128 128 0 0 0-128-128z m-832 0a64 64 0 0 1 64-64H768a64 64 0 0 1 64 64V448h-768V0z m0 640v-128h768V640A64 64 0 0 1 768 704H128A64 64 0 0 1 64 640z m896 128a64 64 0 0 1-64 64H256a64 64 0 0 1-64-64H768a128 128 0 0 0 128-128v-576A64 64 0 0 1 960 128V768zM160 640h384a32 32 0 0 0 0-64h-384a32 32 0 0 0 0 64z m576 0a32 32 0 1 0 0-64 32 32 0 0 0 0 64z"  horiz-adv-x="1024" />

    
    <glyph glyph-name="special" unicode="&#58888;" d="M289.8 485.4c-10.4 12.4-29.1 14.1-41.6 3.6l-0.8-0.6c-12.4-10.4-14.1-29.1-3.6-41.6L489 154.60000000000002c5.9-7 14.4-10.6 23-10.5 8.5-0.1 17.1 3.5 23 10.5l245.2 292.3c10.4 12.4 8.8 31.1-3.6 41.6l-0.8 0.6c-12.4 10.4-31.1 8.8-41.6-3.6L512 220.60000000000002 289.8 485.4zM1017 541.2l-250 298c-6.5 7.7-16.2 11.3-25.5 10.4-1 0.1-1.9 0.1-2.9 0.1h-453c-1 0-2-0.1-2.9-0.1-9.4 0.9-19.1-2.6-25.5-10.4L7 541.2c-5.1-6.1-7.3-13.6-6.8-20.9 0.3-6.3 2.5-12.5 6.8-17.7l481.4-573.8c6.2-7.4 15.4-11 24.5-10.4 8.4 0 16.8 3.6 22.6 10.5L1017 502.6c4.7 5.6 7 12.5 6.9 19.4 0 6.8-2.2 13.6-6.9 19.2zM489 21.5L85.3 502.6c-9.4 11.2-9.4 27.4 0 38.6L284.8 779c5.7 6.8 14.1 10.7 23 10.7h408.4c8.9 0 17.3-3.9 23-10.7l199.5-237.8c9.4-11.2 9.4-27.4 0-38.6L535 21.5c-12-14.3-34-14.3-46 0z"  horiz-adv-x="1024" />

    
    <glyph glyph-name="yewu" unicode="&#58988;" d="M417.233455 558.871273a34.909091 34.909091 0 0 0 34.90909 34.909091h275.316364a34.909091 34.909091 0 0 0 0-69.818182H452.142545a34.909091 34.909091 0 0 0-34.90909 34.909091z m34.90909-147.549091h275.316364a34.909091 34.909091 0 0 1 0 69.818182H452.142545a34.909091 34.909091 0 0 1 0-69.818182z m526.75491-225.466182v-200.238545c0-41.332364-33.652364-74.938182-74.938182-74.938182H122.973091c-41.332364 0-74.938182 33.652364-74.938182 74.938182v200.238545c0 25.6 12.939636 48.221091 32.535273 61.719273V646.516364a115.153455 115.153455 0 0 0 115.013818 115.013818h44.497455a114.781091 114.781091 0 0 0 108.264727 77.591273h483.095273a115.2 115.2 0 0 0 115.013818-115.060364V247.621818c19.549091-13.591273 32.442182-36.165818 32.442182-61.765818zM303.057455 724.061091v-463.173818h81.035636a34.909091 34.909091 0 0 0 34.722909-31.371637c1.861818-18.292364 38.772364-43.706182 94.626909-43.706181s92.765091 25.460364 94.626909 43.706181a34.909091 34.909091 0 0 0 34.722909 31.371637h233.704728V724.061091a45.288727 45.288727 0 0 1-45.195637 45.242182H348.253091a45.335273 45.335273 0 0 1-45.195636-45.242182zM150.341818 646.516364v-385.629091h82.850909V691.665455H195.490909a45.242182 45.242182 0 0 1-45.149091-45.149091z m758.737455-460.660364a5.12 5.12 0 0 1-5.12 5.166545h-235.845818c-22.853818-44.404364-83.130182-75.077818-154.624-75.077818s-131.770182 30.673455-154.717091 75.077818H122.973091a5.12 5.12 0 0 1-5.12-5.166545v-200.238545c0-2.885818 2.234182-5.12 5.12-5.12h780.986182a5.12 5.12 0 0 1 5.12 5.12v200.238545z"  horiz-adv-x="1024" />

    


  </font>
</defs>
</svg>
